<svg width="51" height="47" viewBox="0 0 51 47" fill="none" xmlns="http://www.w3.org/2000/svg">
<rect width="5" height="22" rx="2" transform="matrix(0 -1 -1 0 39.7632 25.8174)" fill="#7C37F4"/>
<path d="M47.9843 24.7114C49.1084 23.9143 49.1084 22.2458 47.9843 21.4486L39.2277 15.2388C37.9033 14.2995 36.0708 15.2465 36.0708 16.8702V29.2899C36.0708 30.9135 37.9033 31.8605 39.2277 30.9213L47.9843 24.7114Z" fill="#7C37F4"/>
<path d="M32.47 13.1825V5C32.47 3.89543 31.5745 3 30.47 3H4.76318C3.65861 3 2.76318 3.89543 2.76318 5V41.73C2.76318 42.8346 3.65861 43.73 4.76318 43.73H30.47C31.5745 43.73 32.47 42.8346 32.47 41.73V33.5475" stroke="#7C37F4" stroke-width="5" stroke-linecap="round"/>
</svg>
