<svg width="33" height="32" viewBox="0 0 33 32" fill="none" xmlns="http://www.w3.org/2000/svg">
<path d="M13.2475 2.67139C14.8033 0.0947068 18.5403 0.0947013 20.096 2.67139L22.5147 6.6773C23.0725 7.60111 23.9798 8.26036 25.0308 8.50536L29.5881 9.56777C32.5194 10.2511 33.6742 13.8052 31.7044 16.0811L28.6419 19.6193C27.9357 20.4352 27.5891 21.5019 27.6809 22.5771L28.0787 27.2397C28.3346 30.2387 25.3113 32.4352 22.5382 31.2651L18.2268 29.4459C17.2326 29.0264 16.111 29.0264 15.1167 29.4459L10.8054 31.2651C8.0322 32.4352 5.00888 30.2387 5.2648 27.2397L5.66266 22.5771C5.75441 21.5019 5.40783 20.4352 4.70159 19.6193L1.63916 16.0811C-0.330665 13.8052 0.824133 10.2511 3.75546 9.56777L8.31272 8.50536C9.36368 8.26036 10.2711 7.60111 10.8288 6.6773L13.2475 2.67139Z" fill="#7C37F4"/>
</svg>
