<svg width="42" height="41" viewBox="0 0 42 41" fill="none" xmlns="http://www.w3.org/2000/svg">
<rect x="10.2784" y="9.76614" width="21.1977" height="21.1977" rx="10.5988" stroke="#7C37F4" stroke-width="7"/>
<path d="M17.8706 1.4847C18.1041 0.609182 18.897 0 19.8031 0H22.1628C23.0923 0 23.8993 0.640347 24.1105 1.54551L25.5777 7.83333H16.1777L17.8706 1.4847Z" fill="#7C37F4"/>
<path d="M18.3926 39.2452C18.626 40.1208 19.4189 40.7299 20.325 40.7299H22.6848C23.6143 40.7299 24.4212 40.0896 24.6324 39.1844L26.0997 32.8966H16.6997L18.3926 39.2452Z" fill="#7C37F4"/>
<path d="M2.25802 23.6328C1.3825 23.3993 0.773315 22.6064 0.773315 21.7003L0.773315 19.3406C0.773315 18.4111 1.41366 17.6041 2.31883 17.3929L8.60665 15.9256V25.3256L2.25802 23.6328Z" fill="#7C37F4"/>
<path d="M40.0187 23.1107C40.8942 22.8773 41.5034 22.0843 41.5034 21.1782V18.8185C41.5034 17.889 40.8631 17.0821 39.9579 16.8708L33.6701 15.4036V24.8036L40.0187 23.1107Z" fill="#7C37F4"/>
<path d="M5.47723 9.32524C5.02322 8.54107 5.15313 7.54964 5.79385 6.90892L7.46243 5.24035C8.11967 4.58311 9.14308 4.46528 9.93248 4.95598L15.4162 8.36463L8.76935 15.0114L5.47723 9.32524Z" fill="#7C37F4"/>
<path d="M32.5472 35.6568C33.3314 36.1108 34.3228 35.9809 34.9635 35.3402L36.6321 33.6716C37.2893 33.0144 37.4072 31.991 36.9165 31.2016L33.5078 25.7179L26.861 32.3647L32.5472 35.6568Z" fill="#7C37F4"/>
<path d="M36.7994 9.32524C37.2534 8.54107 37.1235 7.54964 36.4828 6.90892L34.8142 5.24035C34.1569 4.58311 33.1335 4.46528 32.3441 4.95598L26.8605 8.36463L33.5073 15.0114L36.7994 9.32524Z" fill="#7C37F4"/>
<path d="M9.72964 35.6568C8.94547 36.1108 7.95405 35.9809 7.31333 35.3402L5.64475 33.6716C4.98751 33.0144 4.86969 31.991 5.36038 31.2016L8.76903 25.7179L15.4158 32.3647L9.72964 35.6568Z" fill="#7C37F4"/>
</svg>
