<svg width="254" height="191" viewBox="0 0 254 191" fill="none" xmlns="http://www.w3.org/2000/svg">
<path d="M48.4894 95.4539L131.574 66.8456L145.761 108.048C147.199 112.226 144.979 116.779 140.801 118.217L72.8453 141.616C68.6677 143.055 64.115 140.834 62.6766 136.657L48.4894 95.4539Z" fill="#7C37F4"/>
<path d="M67.0101 29.7302C69.0118 26.5358 72.9718 25.1723 76.5158 26.4571L139.191 49.1793C146.283 51.7503 146.202 61.8085 139.069 64.2644L40.9939 98.0344C33.8614 100.49 27.6048 92.6145 31.6104 86.2223L67.0101 29.7302Z" fill="#7C37F4"/>
<path d="M224.964 133.049L175.307 115.951L166.574 141.315C165.855 143.404 166.965 145.68 169.054 146.399L211.146 160.893C213.235 161.612 215.511 160.502 216.23 158.413L224.964 133.049Z" fill="#7C37F4"/>
<path d="M213.56 93.2338C212.559 91.6367 210.579 90.9549 208.807 91.5973L168.677 106.146C165.131 107.432 165.171 112.461 168.738 113.689L231.534 135.311C235.1 136.539 238.228 132.601 236.225 129.405L213.56 93.2338Z" fill="#7C37F4"/>
<path d="M118.288 149.836C119.066 148.547 120.934 148.547 121.712 149.836L126.818 158.293C127.097 158.755 127.551 159.084 128.076 159.207L137.697 161.45C139.163 161.791 139.74 163.568 138.755 164.706L132.29 172.176C131.937 172.584 131.764 173.117 131.81 173.655L132.65 183.498C132.778 184.997 131.266 186.096 129.879 185.511L120.778 181.67C120.28 181.46 119.72 181.46 119.222 181.67L110.121 185.511C108.734 186.096 107.222 184.997 107.35 183.498L108.19 173.655C108.236 173.117 108.063 172.584 107.71 172.176L101.245 164.706C100.26 163.568 100.837 161.791 102.303 161.45L111.924 159.207C112.449 159.084 112.903 158.755 113.182 158.293L118.288 149.836Z" fill="#7C37F4"/>
<path d="M190.288 25.8357C191.066 24.5474 192.934 24.5474 193.712 25.8357L198.818 34.2927C199.097 34.7546 199.551 35.0842 200.076 35.2067L209.697 37.4496C211.163 37.7913 211.74 39.5683 210.755 40.7062L204.29 48.1758C203.937 48.5838 203.764 49.1171 203.81 49.6547L204.65 59.4979C204.778 60.9974 203.266 62.0957 201.879 61.5106L192.778 57.6701C192.28 57.4603 191.72 57.4603 191.222 57.6701L182.121 61.5106C180.734 62.0957 179.222 60.9974 179.35 59.4979L180.19 49.6547C180.236 49.1171 180.063 48.5838 179.71 48.1758L173.245 40.7062C172.26 39.5683 172.837 37.7913 174.303 37.4496L183.924 35.2067C184.449 35.0842 184.903 34.7546 185.182 34.2927L190.288 25.8357Z" fill="#7C37F4"/>
</svg>
