<svg width="51" height="47" viewBox="0 0 51 47" fill="none" xmlns="http://www.w3.org/2000/svg">
<rect width="5" height="22" rx="2" transform="matrix(0 -1 -1 0 39.7632 26.1472)" fill="white"/>
<path d="M47.9843 25.0412C49.1084 24.244 49.1084 22.5756 47.9843 21.7784L39.2277 15.5685C37.9033 14.6293 36.0708 15.5763 36.0708 17.1999V29.6197C36.0708 31.2433 37.9033 32.1903 39.2277 31.2511L47.9843 25.0412Z" fill="white"/>
<path d="M32.47 13.5122V5.32974C32.47 4.22517 31.5745 3.32974 30.47 3.32974H4.76318C3.65861 3.32974 2.76318 4.22517 2.76318 5.32974V42.0597C2.76318 43.1643 3.65861 44.0597 4.76318 44.0597H30.47C31.5745 44.0597 32.47 43.1643 32.47 42.0597V33.8772" stroke="white" stroke-width="5" stroke-linecap="round"/>
</svg>
