<svg width="33" height="31" viewBox="0 0 33 31" fill="none" xmlns="http://www.w3.org/2000/svg">
<path d="M13.2475 2.00114C14.8033 -0.575551 18.5403 -0.575556 20.096 2.00113L22.5147 6.00704C23.0725 6.93085 23.9798 7.5901 25.0308 7.83511L29.5881 8.89751C32.5194 9.58087 33.6742 13.135 31.7044 15.4108L28.6419 18.949C27.9357 19.765 27.5891 20.8317 27.6809 21.9069L28.0787 26.5694C28.3346 29.5684 25.3113 31.765 22.5382 30.5948L18.2268 28.7757C17.2326 28.3561 16.111 28.3561 15.1167 28.7757L10.8054 30.5948C8.0322 31.765 5.00888 29.5684 5.2648 26.5694L5.66266 21.9069C5.75441 20.8317 5.40783 19.765 4.70159 18.949L1.63916 15.4108C-0.330665 13.135 0.824133 9.58087 3.75546 8.89751L8.31272 7.83511C9.36368 7.5901 10.2711 6.93085 10.8288 6.00704L13.2475 2.00114Z" fill="white"/>
</svg>
