<svg width="42" height="42" viewBox="0 0 42 42" fill="none" xmlns="http://www.w3.org/2000/svg">
<rect x="10.2784" y="10.0959" width="21.1977" height="21.1977" rx="10.5988" stroke="white" stroke-width="7"/>
<path d="M17.8706 1.81445C18.1041 0.938925 18.897 0.329742 19.8031 0.329742H22.1628C23.0923 0.329742 23.8993 0.970089 24.1105 1.87525L25.5777 8.16308H16.1777L17.8706 1.81445Z" fill="white"/>
<path d="M18.3926 39.575C18.626 40.4505 19.4189 41.0597 20.325 41.0597H22.6848C23.6143 41.0597 24.4212 40.4193 24.6324 39.5142L26.0997 33.2264H16.6997L18.3926 39.575Z" fill="white"/>
<path d="M2.25802 23.9625C1.3825 23.729 0.773315 22.9361 0.773315 22.03L0.773315 19.6703C0.773315 18.7408 1.41366 17.9338 2.31883 17.7226L8.60665 16.2554V25.6554L2.25802 23.9625Z" fill="white"/>
<path d="M40.0187 23.4404C40.8942 23.207 41.5034 22.4141 41.5034 21.508V19.1482C41.5034 18.2188 40.8631 17.4118 39.9579 17.2006L33.6701 15.7333V25.1333L40.0187 23.4404Z" fill="white"/>
<path d="M5.47723 9.65499C5.02322 8.87083 5.15313 7.8794 5.79385 7.23868L7.46243 5.57011C8.11967 4.91286 9.14308 4.79504 9.93248 5.28573L15.4162 8.69438L8.76935 15.3412L5.47723 9.65499Z" fill="white"/>
<path d="M32.5472 35.9866C33.3314 36.4406 34.3228 36.3107 34.9635 35.67L36.6321 34.0014C37.2893 33.3441 37.4072 32.3207 36.9165 31.5313L33.5078 26.0477L26.861 32.6945L32.5472 35.9866Z" fill="white"/>
<path d="M36.7994 9.65499C37.2534 8.87083 37.1235 7.8794 36.4828 7.23868L34.8142 5.57011C34.1569 4.91286 33.1335 4.79504 32.3441 5.28573L26.8605 8.69438L33.5073 15.3412L36.7994 9.65499Z" fill="white"/>
<path d="M9.72964 35.9866C8.94547 36.4406 7.95405 36.3107 7.31333 35.67L5.64475 34.0014C4.98751 33.3441 4.86969 32.3207 5.36038 31.5313L8.76903 26.0477L15.4158 32.6945L9.72964 35.9866Z" fill="white"/>
</svg>
